<svg width="92" height="92" viewBox="0 0 92 92" fill="none" xmlns="http://www.w3.org/2000/svg">
  <defs>
    <linearGradient id="logoGrad" x1="46" y1="0" x2="46" y2="92" gradientUnits="userSpaceOnUse">
      <stop stop-color="#00CDAC"/>
      <stop offset="1" stop-color="#02AAB0"/>
    </linearGradient>
  </defs>
  <path d="M0 46C0 8.119 8.119 0 46 0C83.881 0 92 8.119 92 46C92 83.881 83.881 92 46 92C8.119 92 0 83.881 0 46Z" fill="url(#logoGrad)"/>
  <path opacity="0.3" d="M56.5576 53H28.4453C28.1892 53 27.9377 52.9322 27.7165 52.8037C27.4953 52.6751 27.3124 52.4903 27.1866 52.2682C27.0607 52.0461 26.9964 51.7947 27.0002 51.5397C27.0039 51.2847 27.0757 51.0353 27.2081 50.817L41.2621 27.6939C41.3909 27.4821 41.5723 27.307 41.7889 27.1854C42.0055 27.0639 42.2499 27 42.4986 27C42.7472 27 42.9916 27.0639 43.2082 27.1854C43.4248 27.307 43.6063 27.4821 43.735 27.6939L57.7919 50.817C57.9241 51.0351 57.9959 51.2843 57.9998 51.539C58.0037 51.7937 57.9397 52.0449 57.8141 52.2669C57.6886 52.4889 57.5062 52.6738 57.2854 52.8026C57.0646 52.9314 56.8135 52.9995 56.5576 53Z" fill="white"/>
  <path opacity="0.2" d="M36.4438 39H64.5562C64.8122 39.0003 65.0635 39.0682 65.2845 39.1969C65.5054 39.3256 65.6881 39.5104 65.8138 39.7325C65.9395 39.9545 66.0037 40.2058 65.9998 40.4607C65.996 40.7155 65.9242 40.9648 65.7919 41.183L51.7342 64.3061C51.6055 64.5179 51.424 64.693 51.2075 64.8146C50.9909 64.9361 50.7465 65 50.4978 65C50.2492 65 50.0048 64.9361 49.7882 64.8146C49.5716 64.693 49.3902 64.5179 49.2614 64.3061L35.2081 41.183C35.0758 40.9648 35.004 40.7155 35.0002 40.4607C34.9963 40.2058 35.0605 39.9545 35.1862 39.7325C35.3119 39.5104 35.4946 39.3256 35.7155 39.1969C35.9365 39.0682 36.1878 39.0003 36.4438 39Z" fill="white"/>
</svg>
